<mxfile host="app.diagrams.net" agent="Mozilla/5.0 (Windows NT 10.0; Win64; x64) AppleWebKit/537.36 (KHTML, like Gecko) Chrome/132.0.0.0 Safari/537.36" version="26.0.14">
  <diagram name="PÃ¡gina-1" id="M0jEwZDnPcCqtXgiyAlZ">
    <mxGraphModel dx="637" dy="319" grid="1" gridSize="10" guides="1" tooltips="1" connect="1" arrows="1" fold="1" page="1" pageScale="1" pageWidth="850" pageHeight="1100" math="0" shadow="0">
      <root>
        <mxCell id="0" />
        <mxCell id="1" parent="0" />
        <mxCell id="GA6FZGkoONvk36M3XGC3-3" value="" style="edgeStyle=orthogonalEdgeStyle;rounded=0;orthogonalLoop=1;jettySize=auto;html=1;" edge="1" parent="1" source="GA6FZGkoONvk36M3XGC3-1" target="GA6FZGkoONvk36M3XGC3-2">
          <mxGeometry relative="1" as="geometry" />
        </mxCell>
        <mxCell id="GA6FZGkoONvk36M3XGC3-1" value="Inicio" style="ellipse;whiteSpace=wrap;html=1;" vertex="1" parent="1">
          <mxGeometry x="365" y="20" width="120" height="80" as="geometry" />
        </mxCell>
        <mxCell id="GA6FZGkoONvk36M3XGC3-5" value="" style="edgeStyle=orthogonalEdgeStyle;rounded=0;orthogonalLoop=1;jettySize=auto;html=1;" edge="1" parent="1" source="GA6FZGkoONvk36M3XGC3-2" target="GA6FZGkoONvk36M3XGC3-4">
          <mxGeometry relative="1" as="geometry" />
        </mxCell>
        <mxCell id="GA6FZGkoONvk36M3XGC3-2" value="Ingresar precio base" style="whiteSpace=wrap;html=1;" vertex="1" parent="1">
          <mxGeometry x="365" y="150" width="120" height="60" as="geometry" />
        </mxCell>
        <mxCell id="GA6FZGkoONvk36M3XGC3-7" value="" style="edgeStyle=orthogonalEdgeStyle;rounded=0;orthogonalLoop=1;jettySize=auto;html=1;" edge="1" parent="1" source="GA6FZGkoONvk36M3XGC3-4" target="GA6FZGkoONvk36M3XGC3-6">
          <mxGeometry relative="1" as="geometry" />
        </mxCell>
        <mxCell id="GA6FZGkoONvk36M3XGC3-9" value="" style="edgeStyle=orthogonalEdgeStyle;rounded=0;orthogonalLoop=1;jettySize=auto;html=1;" edge="1" parent="1" source="GA6FZGkoONvk36M3XGC3-4" target="GA6FZGkoONvk36M3XGC3-8">
          <mxGeometry relative="1" as="geometry" />
        </mxCell>
        <mxCell id="GA6FZGkoONvk36M3XGC3-4" value="precio base &amp;gt; $200?" style="rhombus;whiteSpace=wrap;html=1;" vertex="1" parent="1">
          <mxGeometry x="348" y="260" width="155" height="150" as="geometry" />
        </mxCell>
        <mxCell id="GA6FZGkoONvk36M3XGC3-6" value="Calcular descuento = precio * 0.15" style="whiteSpace=wrap;html=1;" vertex="1" parent="1">
          <mxGeometry x="80" y="480" width="120" height="60" as="geometry" />
        </mxCell>
        <mxCell id="GA6FZGkoONvk36M3XGC3-8" value="Calcular descuento = precio * 0.05" style="whiteSpace=wrap;html=1;" vertex="1" parent="1">
          <mxGeometry x="620" y="480" width="120" height="60" as="geometry" />
        </mxCell>
        <mxCell id="GA6FZGkoONvk36M3XGC3-14" value="" style="edgeStyle=orthogonalEdgeStyle;rounded=0;orthogonalLoop=1;jettySize=auto;html=1;" edge="1" parent="1" source="GA6FZGkoONvk36M3XGC3-10" target="GA6FZGkoONvk36M3XGC3-13">
          <mxGeometry relative="1" as="geometry" />
        </mxCell>
        <mxCell id="GA6FZGkoONvk36M3XGC3-10" value="Calcular precio final = precio base - descuento" style="rounded=0;whiteSpace=wrap;html=1;" vertex="1" parent="1">
          <mxGeometry x="365" y="560" width="120" height="60" as="geometry" />
        </mxCell>
        <mxCell id="GA6FZGkoONvk36M3XGC3-11" value="" style="endArrow=classic;html=1;rounded=0;exitX=0.5;exitY=1;exitDx=0;exitDy=0;" edge="1" parent="1" source="GA6FZGkoONvk36M3XGC3-6">
          <mxGeometry width="50" height="50" relative="1" as="geometry">
            <mxPoint x="305" y="560" as="sourcePoint" />
            <mxPoint x="365" y="600" as="targetPoint" />
            <Array as="points">
              <mxPoint x="140" y="600" />
            </Array>
          </mxGeometry>
        </mxCell>
        <mxCell id="GA6FZGkoONvk36M3XGC3-12" value="" style="endArrow=classic;html=1;rounded=0;exitX=0.5;exitY=1;exitDx=0;exitDy=0;" edge="1" parent="1" source="GA6FZGkoONvk36M3XGC3-8">
          <mxGeometry width="50" height="50" relative="1" as="geometry">
            <mxPoint x="585" y="570" as="sourcePoint" />
            <mxPoint x="485" y="600" as="targetPoint" />
            <Array as="points">
              <mxPoint x="680" y="600" />
            </Array>
          </mxGeometry>
        </mxCell>
        <mxCell id="GA6FZGkoONvk36M3XGC3-16" value="" style="edgeStyle=orthogonalEdgeStyle;rounded=0;orthogonalLoop=1;jettySize=auto;html=1;" edge="1" parent="1" source="GA6FZGkoONvk36M3XGC3-13" target="GA6FZGkoONvk36M3XGC3-15">
          <mxGeometry relative="1" as="geometry" />
        </mxCell>
        <mxCell id="GA6FZGkoONvk36M3XGC3-13" value="Mostrar precio base, descuento y precio final" style="whiteSpace=wrap;html=1;rounded=0;" vertex="1" parent="1">
          <mxGeometry x="365" y="680" width="120" height="60" as="geometry" />
        </mxCell>
        <mxCell id="GA6FZGkoONvk36M3XGC3-15" value="Fin" style="ellipse;whiteSpace=wrap;html=1;rounded=0;" vertex="1" parent="1">
          <mxGeometry x="368" y="780" width="115" height="80" as="geometry" />
        </mxCell>
        <mxCell id="GA6FZGkoONvk36M3XGC3-17" value="Si" style="text;html=1;align=center;verticalAlign=middle;whiteSpace=wrap;rounded=0;" vertex="1" parent="1">
          <mxGeometry x="250" y="310" width="60" height="30" as="geometry" />
        </mxCell>
        <mxCell id="GA6FZGkoONvk36M3XGC3-18" value="No" style="text;html=1;align=center;verticalAlign=middle;whiteSpace=wrap;rounded=0;" vertex="1" parent="1">
          <mxGeometry x="560" y="310" width="60" height="30" as="geometry" />
        </mxCell>
      </root>
    </mxGraphModel>
  </diagram>
</mxfile>
